<svg xmlns="http://www.w3.org/2000/svg" viewBox="0 0 412.8 353.65"><defs><style>.cls-1,.cls-2,.cls-3{fill:#1d1d1b;}.cls-2{font-size:33.6px;font-family:ComicSansMS, Comic Sans MS;}.cls-3{font-size:11.2px;font-family:Arial-BoldMT, Arial;font-weight:700;letter-spacing:0.8em;}</style></defs><title>Zasób 1</title><g id="Warstwa_2" data-name="Warstwa 2"><g id="Warstwa_1-2" data-name="Warstwa 1"><path class="cls-1" d="M382.74,25.14h-111l4.46,12.8H382.74A17.28,17.28,0,0,1,400,55.2V247.88a17.28,17.28,0,0,1-17.26,17.26H30.06A17.28,17.28,0,0,1,12.8,247.88V208.53H0v39.35a30.1,30.1,0,0,0,30.06,30.06H382.74a30.1,30.1,0,0,0,30.06-30.06V55.2A30.1,30.1,0,0,0,382.74,25.14Z"/><path class="cls-1" d="M205.6,246.15a94.61,94.61,0,1,1,94.61-94.61A94.71,94.71,0,0,1,205.6,246.15Zm0-176.42a81.81,81.81,0,1,0,81.81,81.81A81.9,81.9,0,0,0,205.6,69.73Z"/><path class="cls-1" d="M304.21,13.6a32.67,32.67,0,0,1,4.05-3.79,46.14,46.14,0,0,1,4-2.9c.68-.42,1.35-.79,2-1.19s1.34-.71,2-1.06a37.43,37.43,0,0,1,4-1.77A45.61,45.61,0,0,1,336.58,0a46.15,46.15,0,0,1,16.18,2.93,37.43,37.43,0,0,1,4.05,1.77,42.77,42.77,0,0,1,8.09,5.13A33.2,33.2,0,0,1,369,13.6v1.6c-2.7.18-5.4.26-8.09.39l-8.1.22c-5.39.13-10.79.12-16.18.19s-10.79-.06-16.18-.19l-8.1-.22c-2.69-.13-5.39-.21-8.09-.39Z"/><path class="cls-1" d="M236.39,106.29c24.35,22.45,25.11,61.23,1.7,86.61A63.84,63.84,0,0,1,199.92,213c20.87,4.82,44.12-1.76,60.18-19.16,23.41-25.38,22.64-64.16-1.7-86.61a58.86,58.86,0,0,0-48.29-14.81A57.72,57.72,0,0,1,236.39,106.29Z"/><text class="cls-2" transform="translate(61.39 324.65)">Kinga Zawistowska</text><text class="cls-3" transform="translate(113.25 349.43)">PHOTOGRAPHY</text></g></g></svg>