<svg xmlns="http://www.w3.org/2000/svg" viewBox="0 0 494.73 310.08"><defs><style>.cls-1,.cls-2,.cls-3{fill:#1d1d1b;}.cls-2{font-size:75.33px;font-family:ScriptMTBold, Script MT Bold;}.cls-3{font-size:36.17px;font-family:Arial-BoldMT, Arial;font-weight:700;letter-spacing:0.8em;}</style></defs><title>Zasób 5</title><g id="Warstwa_2" data-name="Warstwa 2"><g id="Warstwa_1-2" data-name="Warstwa 1"><path class="cls-1" d="M340.62,20h-58.7l2.36,6.73h56.34a9.11,9.11,0,0,1,9.13,9.07V137.09a9.11,9.11,0,0,1-9.13,9.07H154.1a9.11,9.11,0,0,1-9.13-9.07V116.42H138.2v20.67a15.87,15.87,0,0,0,15.9,15.8H340.62a15.87,15.87,0,0,0,15.9-15.8V35.84A15.87,15.87,0,0,0,340.62,20Z"/><path class="cls-1" d="M246.94,136.19a49.72,49.72,0,1,1,50-49.72A49.94,49.94,0,0,1,246.94,136.19Zm0-92.71a43,43,0,1,0,43.27,43A43.18,43.18,0,0,0,246.94,43.48Z"/><path class="cls-1" d="M299.09,13.6a31.06,31.06,0,0,1,2.14-3.79,35.29,35.29,0,0,1,2.14-2.9c.36-.42.72-.79,1.07-1.19s.72-.71,1.07-1.06a18.36,18.36,0,0,1,2.14-1.77A14.56,14.56,0,0,1,316.21,0a14.71,14.71,0,0,1,8.56,2.93,16.84,16.84,0,0,1,2.14,1.77A24.48,24.48,0,0,1,329.05,7a29.54,29.54,0,0,1,2.14,2.88,28.92,28.92,0,0,1,2.14,3.77v1.6c-1.42.18-2.85.26-4.28.39l-4.28.22c-2.85.13-5.7.12-8.56.19s-5.7-.06-8.56-.19l-4.28-.22c-1.42-.13-2.85-.21-4.28-.39Z"/><path class="cls-1" d="M263.23,62.69c12.87,11.8,13.27,32.17.89,45.51a33.78,33.78,0,0,1-20.19,10.56,33.39,33.39,0,0,0,31.83-10.07c12.38-13.33,12-33.71-.89-45.51a31.26,31.26,0,0,0-25.54-7.78A30.61,30.61,0,0,1,263.23,62.69Z"/><text class="cls-2" transform="translate(0 236.55) scale(0.82 1)">Kinga Zawistowska</text><text class="cls-3" transform="translate(68.76 296.46) scale(0.59 1)">PHOTOGRAPHY</text></g></g></svg>