<svg xmlns="http://www.w3.org/2000/svg" viewBox="0 0 381.11 314.15"><defs><style>.cls-1,.cls-2,.cls-3{fill:#1d1d1b;}.cls-2{font-size:72px;font-family:ComicSansMS, Comic Sans MS;}.cls-3{font-size:23.07px;font-family:Arial-BoldMT, Arial;font-weight:700;letter-spacing:0.8em;}</style></defs><title>Zasób 3</title><g id="Warstwa_2" data-name="Warstwa 2"><g id="Warstwa_1-2" data-name="Warstwa 1"><path class="cls-1" d="M326.24,22.28h-85.4l3.43,9.4h82c7.33,0,13.28,5.68,13.28,12.67V185.74c0,7-5.95,12.67-13.28,12.67H54.87c-7.32,0-13.28-5.68-13.28-12.67V156.87H31.74v28.87c0,12.17,10.38,22.07,23.13,22.07H326.24c12.76,0,23.13-9.9,23.13-22.07V44.35C349.37,32.18,339,22.28,326.24,22.28Z"/><path class="cls-1" d="M189.94,184.48c-40.14,0-72.8-31.15-72.8-69.44s32.66-69.43,72.8-69.43,72.8,31.15,72.8,69.43S230.08,184.48,189.94,184.48Zm0-129.48C155.23,55,127,81.94,127,115s28.24,60,63,60,62.95-26.93,62.95-60S224.65,55,189.94,55Z"/><path class="cls-1" d="M265.82,13.6a29.35,29.35,0,0,1,3.11-3.79A39.12,39.12,0,0,1,272,6.91c.52-.42,1-.79,1.56-1.19s1-.71,1.56-1.06a25.87,25.87,0,0,1,3.11-1.77A28,28,0,0,1,290.72,0a28.36,28.36,0,0,1,12.46,2.93,25.87,25.87,0,0,1,3.11,1.77A32.39,32.39,0,0,1,309.4,7a35.56,35.56,0,0,1,3.12,2.88,29.77,29.77,0,0,1,3.11,3.77v1.6c-2.07.18-4.15.26-6.23.39l-6.22.22c-4.15.13-8.3.12-12.46.19s-8.3-.06-12.45-.19L272,15.59c-2.07-.13-4.15-.21-6.22-.39Z"/><path class="cls-1" d="M213.63,81.83c18.74,16.48,19.32,44.94,1.31,63.57a49.9,49.9,0,0,1-29.37,14.74,49.89,49.89,0,0,0,46.31-14c18-18.63,17.42-47.09-1.31-63.57a46.79,46.79,0,0,0-37.16-10.86A45.23,45.23,0,0,1,213.63,81.83Z"/><text class="cls-2" transform="translate(0 268.07) scale(0.61 1)">Kinga Zawistowska</text><text class="cls-3" transform="translate(57.31 305.47) scale(0.69 1)">PHOTOGRAPHY</text></g></g></svg>