<svg xmlns="http://www.w3.org/2000/svg" viewBox="0 0 381.11 356.84"><defs><style>.cls-1,.cls-2,.cls-3{fill:#1d1d1b;}.cls-2{font-size:72px;font-family:ComicSansMS, Comic Sans MS;}.cls-3{font-size:23.07px;font-family:Arial-BoldMT, Arial;font-weight:700;letter-spacing:0.8em;}</style></defs><title>Zasób 4</title><g id="Warstwa_2" data-name="Warstwa 2"><g id="Warstwa_1-2" data-name="Warstwa 1"><path class="cls-1" d="M326.24,23.13h-85.4l3.43,10.39h82c7.33,0,13.28,6.29,13.28,14V204.07c0,7.73-5.95,14-13.28,14H54.87c-7.32,0-13.28-6.29-13.28-14v-32H31.74v32c0,13.46,10.38,24.42,23.13,24.42H326.24c12.76,0,23.13-11,23.13-24.42V47.55C349.37,34.08,339,23.13,326.24,23.13Z"/><path class="cls-1" d="M189.94,202.67c-40.14,0-72.8-34.48-72.8-76.86S149.8,49,189.94,49s72.8,34.48,72.8,76.86S230.08,202.67,189.94,202.67Zm0-143.32c-34.71,0-62.95,29.81-62.95,66.46s28.24,66.46,63,66.46,62.95-29.82,62.95-66.46S224.65,59.35,189.94,59.35Z"/><path class="cls-1" d="M265.82,13.6a29.35,29.35,0,0,1,3.11-3.79A39.12,39.12,0,0,1,272,6.91c.52-.42,1-.79,1.56-1.19s1-.71,1.56-1.06a25.87,25.87,0,0,1,3.11-1.77A28,28,0,0,1,290.72,0a28.36,28.36,0,0,1,12.46,2.93,25.87,25.87,0,0,1,3.11,1.77A32.39,32.39,0,0,1,309.4,7a35.56,35.56,0,0,1,3.12,2.88,29.77,29.77,0,0,1,3.11,3.77v1.6c-2.07.18-4.15.26-6.23.39l-6.22.22c-4.15.13-8.3.12-12.46.19s-8.3-.06-12.45-.19L272,15.59c-2.07-.13-4.15-.21-6.22-.39Z"/><path class="cls-1" d="M213.63,89.05c18.74,18.24,19.32,49.74,1.31,70.36a48.29,48.29,0,0,1-29.37,16.32c16.06,3.92,34-1.42,46.31-15.56,18-20.62,17.42-52.12-1.31-70.36a43.74,43.74,0,0,0-37.16-12A43.77,43.77,0,0,1,213.63,89.05Z"/><text class="cls-2" transform="translate(0 310.76) scale(0.61 1)">Kinga Zawistowska</text><text class="cls-3" transform="translate(57.31 348.15) scale(0.69 1)">PHOTOGRAPHY</text></g></g></svg>